# xmcd
#
# Track frame offsets:
#	150
#	12190
#	28708
#	40744
#	51427
#	66345
#	80138
#	93355
#	108671
#	119457
#	130517
#	144087
#	155728
#
# Disc length: 2365 seconds
# Revision: 0
# Processed by: cddbd v1.5.2PL0 Copyright (c) Steve Scherf et al.
# Submitted via: dBpowerAMP V12.0
#
DISCID=af093b0d
DTITLE=The Expedition Show - The Expedition Show
DYEAR=2011
DGENRE=Country
TTITLE0=Backroads and Little Towns
TTITLE1=Northern Rail
TTITLE2=I Can't Keep You in Love With Me
TTITLE3=Sparta Flash
TTITLE4=Smoke and Mirrors
TTITLE5=True Blue Never Ending Heartache
TTITLE6=It Started All Over Again
TTITLE7=When the Springtime Comes Again (Little Annie)
TTITLE8=Storms of Life
TTITLE9=Showdown
TTITLE10=My Love for You Is True
TTITLE11=When the Roll Is Called Up Yonder
TTITLE12=Bonus Comedy Track
EXTD=
EXTT0=
EXTT1=
EXTT2=
EXTT3=
EXTT4=
EXTT5=
EXTT6=
EXTT7=
EXTT8=
EXTT9=
EXTT10=
EXTT11=
EXTT12=
PLAYORDER=
